<svg width="274" height="222" viewBox="0 0 274 222" fill="none" xmlns="http://www.w3.org/2000/svg">
<path d="M255.59 64.7789H21.5906C13.026 64.7789 6.10261 57.8434 6.10261 49.3059C6.10261 40.7684 13.026 33.8329 21.5906 33.8329H87.4667C95.9936 33.8329 102.898 26.9351 102.898 18.4165C102.898 9.89783 95.9936 3 87.4667 3H-94.9752C-103.502 3 -110.407 9.89783 -110.407 18.4165C-110.407 26.9351 -103.502 33.8329 -94.9752 33.8329H-34.7398C-26.194 33.8329 -19.2517 40.7684 -19.2517 49.3059C-19.2517 57.8434 -26.194 64.7789 -34.7398 64.7789H-158.569C-167.095 64.7789 -174 71.6768 -174 80.1954C-174 88.714 -167.095 95.6118 -158.569 95.6118H28.3065C36.0411 96.4788 42.0401 103.037 42.0401 110.991C42.0401 119.528 35.0979 126.464 26.5521 126.464H3.7445C-4.7824 126.464 -11.6869 133.361 -11.6869 141.88C-11.6869 150.399 -4.7824 157.297 3.7445 157.297H63.9611C72.5068 157.297 79.4491 164.232 79.4491 172.77C79.4491 180.723 73.4501 187.263 65.7155 188.148H44.285C35.7581 188.148 28.8536 195.046 28.8536 203.565C28.8536 212.083 35.7581 218.981 44.285 218.981H215.333C223.859 218.981 230.764 212.083 230.764 203.565C230.764 195.046 223.859 188.148 215.333 188.148H118.537C110.802 187.281 104.803 180.723 104.803 172.77C104.803 164.232 111.746 157.297 120.291 157.297H162.643C171.17 157.297 178.074 150.399 178.074 141.88C178.074 133.361 171.17 126.464 162.643 126.464H82.9013C74.3367 126.464 67.4133 119.528 67.4133 110.991C67.4133 103.037 73.4123 96.4976 81.1469 95.6118H255.59C264.117 95.6118 271.022 88.714 271.022 80.1954C271.022 71.6768 264.117 64.7789 255.59 64.7789Z" stroke="#D5A68A" stroke-opacity="0.3" stroke-width="5" stroke-miterlimit="10"/>
</svg>
