<svg width="523" height="257" viewBox="0 0 523 257" fill="none" xmlns="http://www.w3.org/2000/svg">
<path d="M501.862 74.7894H229.947C219.994 74.7894 211.949 66.73 211.949 56.8092C211.949 46.8883 219.994 38.829 229.947 38.829H306.497C316.405 38.829 324.429 30.8134 324.429 20.9145C324.429 11.0155 316.405 3 306.497 3H94.4928C84.5842 3 76.5609 11.0155 76.5609 20.9145C76.5609 30.8134 84.5842 38.829 94.4928 38.829H164.489C174.419 38.829 182.486 46.8883 182.486 56.8092C182.486 66.73 174.419 74.7894 164.489 74.7894H20.595C10.6864 74.7894 2.66309 82.8049 2.66309 92.7039C2.66309 102.603 10.6864 110.618 20.595 110.618H237.751C246.739 111.626 253.71 119.247 253.71 128.489C253.71 138.41 245.642 146.469 235.712 146.469H209.209C199.3 146.469 191.277 154.485 191.277 164.384C191.277 174.283 199.3 182.298 209.209 182.298H279.183C289.113 182.298 297.18 190.358 297.18 200.278C297.18 209.52 290.209 217.12 281.221 218.149H256.318C246.41 218.149 238.386 226.165 238.386 236.064C238.386 245.963 246.41 253.978 256.318 253.978H455.082C464.99 253.978 473.014 245.963 473.014 236.064C473.014 226.165 464.99 218.149 455.082 218.149H342.602C333.614 217.142 326.643 209.52 326.643 200.278C326.643 190.358 334.71 182.298 344.641 182.298H393.855C403.763 182.298 411.786 174.283 411.786 164.384C411.786 154.485 403.763 146.469 393.855 146.469H301.192C291.239 146.469 283.194 138.41 283.194 128.489C283.194 119.247 290.165 111.648 299.153 110.618H501.862C511.771 110.618 519.794 102.603 519.794 92.7039C519.794 82.8049 511.771 74.7894 501.862 74.7894Z" stroke="#DD8D83" stroke-opacity="0.3" stroke-width="5" stroke-miterlimit="10"/>
</svg>
