<svg width="252" height="43" viewBox="0 0 252 43" fill="none" xmlns="http://www.w3.org/2000/svg">
<g clip-path="url(#clip0_55_4049)">
<path d="M22.7879 0.16995C18.028 -0.603525 18.028 4.41982 18.028 4.41982V13.557H7.19087V4.8533C7.18237 2.76237 9.13731 0.730933 5.66942 0.16995C0.909568 -0.595025 0.909568 4.41982 0.909568 4.41982V27.8026C0.909568 30.6925 -1.71685 34.1009 1.96353 34.1009C7.80285 34.1009 7.18237 28.3636 7.18237 28.3636V19.6088H18.0195V27.8026C18.0195 30.6925 15.3931 34.1009 19.0735 34.1009C24.9128 34.1009 24.2923 28.3636 24.2923 28.3636V4.8533C24.2923 2.76237 26.2473 0.739432 22.7794 0.17845L22.7879 0.16995Z" fill="white"/>
<path d="M45.1166 11.6276C41.3258 11.0156 41.3258 15.002 41.3258 15.002V23.3232C41.3258 24.5047 41.4023 28.8905 37.4669 28.8905C33.5315 28.8905 33.608 23.7737 33.608 23.7737V15.3419C33.608 13.676 35.1635 12.0695 32.4095 11.6191C28.6187 11.0071 28.6187 14.9935 28.6187 14.9935V23.3147C28.6187 23.3147 27.9812 33.5314 37.5604 33.5314C47.1396 33.5314 46.3151 23.7652 46.3151 23.7652V15.3334C46.3151 13.6675 47.8706 12.061 45.1166 11.6106V11.6276Z" fill="white"/>
<path d="M177.721 16.0474C177.721 14.305 179.319 12.6135 176.48 12.1461C172.579 11.5001 172.579 15.6904 172.579 15.6904V15.9539C169.468 12.996 165.847 13.166 165.847 13.166C161.673 13.166 155.868 16.3194 155.868 23.9182C155.868 31.5169 161.826 34.6703 166.144 34.6703C169.638 34.6703 171.737 32.9704 172.409 32.3159C172.494 32.2309 172.647 32.2989 172.638 32.4179C172.638 32.4179 172.655 32.3924 172.681 32.3669C173.012 33.1149 173.888 34.5938 175.571 34.5938C177.823 34.5938 177.712 32.8259 177.712 32.8259V16.0389L177.721 16.0474ZM168.218 29.885C164.07 30.6755 160.501 27.0801 161.291 22.8897C161.733 20.5523 163.594 18.6653 165.915 18.2234C168.924 17.6454 171.618 19.3878 172.579 21.9887V24.4197L172.562 26.1876C171.856 28.0661 170.207 29.511 168.218 29.885Z" fill="#EB8880"/>
<path d="M155.876 7.34374C157.814 7.34374 159.387 5.74579 159.387 3.77386V2.24391C159.387 1.55543 158.834 0.994446 158.163 0.994446H139.591C137.653 0.994446 136.081 2.5924 136.081 4.56433V6.09428C136.081 6.78276 136.633 7.34374 137.305 7.34374H144.997V28.3211C144.997 31.347 142.294 34.9339 146.085 34.9339C152.103 34.9339 151.457 28.9161 151.457 28.9161V7.34374H155.876Z" fill="#EB8880"/>
<path d="M61.4954 12.4606C57.543 12.4606 55.86 14.169 55.2991 14.934C55.2821 14.441 55.0271 11.0496 51.5082 11.6191C48.7543 12.0611 50.3097 13.676 50.3097 15.342V31.3385C50.3097 31.3385 50.1992 33.0214 52.3921 33.0214C54.5851 33.0214 55.3586 30.4885 55.3586 30.4885L55.3076 23.3147V21.7253C55.7325 19.9658 56.999 17.1609 59.8379 17.1609C63.1698 17.1609 63.3313 20.9773 63.3313 20.9773V28.7886C63.3313 31.636 61.1979 33.9224 64.1898 33.9224C68.9411 33.9224 68.4396 29.2475 68.4396 29.2475C68.4396 29.2475 68.4566 22.1843 68.4566 19.4983C68.4566 16.8124 66.5782 12.4521 61.5039 12.4521L61.4954 12.4606Z" fill="white"/>
<path d="M193.938 13.0215C189.867 13.0215 188.133 14.815 187.555 15.6139C187.538 15.0955 187.274 11.5426 183.653 12.1376C180.815 12.605 182.413 14.2965 182.413 16.0389V32.8259C182.413 32.8259 182.302 34.5938 184.554 34.5938C186.807 34.5938 187.606 31.9419 187.606 31.9419L187.546 24.4197V22.7537C187.98 20.9093 189.289 17.9684 192.213 17.9684C195.647 17.9684 195.817 21.9717 195.817 21.9717V30.1655C195.817 33.1489 193.615 35.5458 196.701 35.5458C201.596 35.5458 201.078 30.65 201.078 30.65C201.078 30.65 201.095 23.2382 201.095 20.4248C201.095 17.6114 199.165 13.03 193.938 13.03V13.0215Z" fill="#EB8880"/>
<path d="M91.1086 11.6276C87.3177 11.0156 87.1732 15.308 87.1732 15.308C84.1728 12.4351 80.6454 12.5966 80.6454 12.5966C76.642 12.5966 71.0747 15.597 71.0747 22.8132C71.0747 30.0295 76.795 33.0299 80.9259 33.0299C84.2748 33.0299 86.2892 31.415 86.9352 30.7945C87.0202 30.7095 87.1647 30.7775 87.1562 30.8965C87.0627 33.3104 85.9322 36.2003 82.1329 36.2003C79.1664 36.2003 77.696 35.3503 77.0925 34.8489C76.812 34.6109 76.455 34.4919 76.0895 34.4919H72.9616C71.9077 34.4919 71.2447 35.6223 71.7547 36.5403C72.8086 38.4272 75.4351 40.9432 81.8949 40.9432C92.3155 40.9432 92.2985 31.2195 92.2985 31.2195V15.342C92.2985 13.676 93.854 12.0696 91.1001 11.6191L91.1086 11.6276ZM87.3687 24.0542C86.9437 26.2726 85.1588 28.0661 82.9318 28.4911C78.954 29.2475 75.5286 25.8221 76.285 21.8443C76.71 19.6258 78.495 17.8324 80.7219 17.4074C84.6998 16.6509 88.1252 20.0763 87.3687 24.0542Z" fill="white"/>
<path d="M225.337 12.146C221.435 11.5001 221.282 16.0134 221.282 16.0134C218.188 12.996 214.559 13.1745 214.559 13.1745C210.428 13.1745 204.699 16.3194 204.699 23.8927C204.699 31.4659 210.59 34.6108 214.848 34.6108C218.299 34.6108 220.373 32.9109 221.044 32.2649C221.129 32.1799 221.282 32.2479 221.274 32.3669C221.18 34.8998 220.016 37.9342 216.097 37.9342C213.037 37.9342 211.533 37.0417 210.913 36.5233C210.624 36.2768 210.258 36.1493 209.876 36.1493H206.654C205.566 36.1493 204.878 37.3392 205.413 38.2997C206.501 40.2801 209.204 42.9236 215.859 42.9236C226.595 42.9236 226.578 32.7239 226.578 32.7239V16.0729C226.578 14.3305 228.175 12.639 225.337 12.1715V12.146ZM221.478 25.1761C221.044 27.505 219.2 29.3835 216.905 29.8255C212.808 30.6159 209.281 27.0291 210.054 22.8557C210.488 20.5268 212.332 18.6483 214.627 18.2063C218.724 17.4159 222.251 21.0028 221.478 25.1761Z" fill="#EB8880"/>
<path d="M105.975 12.5965C103.986 12.5965 102.711 13.829 102.133 14.56C102.005 13.54 101.385 11.1431 98.3758 11.6276C95.6219 12.0695 97.1774 13.6845 97.1774 15.3504V31.9079C97.1774 31.9079 97.0669 33.5909 99.2598 33.5909C101.036 33.5909 101.878 31.9334 102.141 31.2959C102.201 31.1514 102.226 30.9984 102.226 30.8454L102.175 23.3317V22.3032C102.277 19.7703 103.739 17.0504 105.635 17.0504C107.53 17.0504 108.193 17.9684 108.567 17.8494C108.941 17.7304 109.757 14.764 109.757 14.6195C109.757 14.475 108.788 12.6135 105.975 12.6135V12.5965Z" fill="white"/>
<path d="M131.321 11.5596C128.082 11.2961 127.096 13.7865 127.096 13.7865L122.107 24.3007L117.109 13.7865C117.109 13.7865 116.132 11.2961 112.885 11.5596C109.477 11.8401 111.346 12.792 112.128 14.4495C112.128 14.4495 117.407 25.6521 119.421 29.936L115.095 39.0477C115.095 39.0477 114.602 39.8552 113.93 40.4246C113.259 40.9941 114.474 42.0651 116.965 41.8441C119.455 41.6231 119.906 40.1357 120.416 39.0562C120.62 38.6227 122.524 34.6108 124.734 29.9445L124.785 29.9275L124.768 29.885C128.082 22.8812 132.077 14.4495 132.077 14.4495C132.868 12.792 134.729 11.8401 131.321 11.5596Z" fill="white"/>
<path d="M251.252 20.4248C250.529 18.4528 249.424 16.8209 247.937 15.5204C246.449 14.22 244.741 13.3955 242.82 13.047C240.899 12.6985 239.021 12.8685 237.21 13.557C235.408 14.237 233.904 15.3504 232.688 16.8804C231.481 18.4103 230.725 20.1868 230.436 22.2182C230.147 24.2412 230.342 26.2046 231.039 28.117C232.008 30.7604 233.734 32.7664 236.216 34.1348C239.063 35.6903 241.996 35.9028 244.996 34.7638C247.801 33.7014 249.807 31.7719 251.022 28.9755C252.238 26.1791 252.314 23.3317 251.252 20.4333V20.4248ZM246.619 26.9186C246.016 28.4145 244.903 29.477 243.271 30.089C241.69 30.6924 240.185 30.616 238.749 29.8765C237.321 29.137 236.301 27.913 235.68 26.2216C235.043 24.4876 235.026 22.8727 235.621 21.3767C236.216 19.8808 237.321 18.8268 238.927 18.2233C240.534 17.6114 242.055 17.6879 243.492 18.4273C244.928 19.1753 245.956 20.3993 246.585 22.1077C247.214 23.8162 247.223 25.4226 246.619 26.9186Z" fill="#EB8880"/>
</g>
<defs>
<clipPath id="clip0_55_4049">
<rect width="252" height="42.8131" fill="white" transform="translate(0 0.0934448)"/>
</clipPath>
</defs>
</svg>
