<svg width="33" height="32" viewBox="0 0 33 32" fill="none" xmlns="http://www.w3.org/2000/svg">
<g id="Group 60">
<path id="Vector" d="M16.7715 31C25.0558 31 31.7715 24.2843 31.7715 16C31.7715 7.71573 25.0558 1 16.7715 1C8.48721 1 1.77148 7.71573 1.77148 16C1.77148 24.2843 8.48721 31 16.7715 31Z" stroke="#EB8880" stroke-width="2" stroke-miterlimit="10"/>
<path id="Vector_2" d="M3.62305 8.77692H29.9192" stroke="#EB8880" stroke-width="2" stroke-miterlimit="10"/>
<path id="Vector_3" d="M10.2178 2.50748V29.4975" stroke="#EB8880" stroke-width="2" stroke-miterlimit="10"/>
<path id="Vector_4" d="M16.4467 1.25945C16.4467 1.25945 14.8543 16.0648 3.62305 22.7786" stroke="#EB8880" stroke-width="2" stroke-miterlimit="10"/>
<path id="Vector_5" d="M15.124 30.9999V13.9483V8.77692" stroke="#EB8880" stroke-width="2" stroke-miterlimit="10"/>
<path id="Vector_6" d="M31.7713 14.8867H15.124" stroke="#EB8880" stroke-width="2" stroke-miterlimit="10"/>
<path id="Vector_7" d="M31.1224 20.9965H15.124" stroke="#EB8880" stroke-width="2" stroke-miterlimit="10"/>
<path id="Vector_8" d="M27.3387 27.1113H15.124" stroke="#EB8880" stroke-width="2" stroke-miterlimit="10"/>
<path id="Vector_9" d="M23.4502 8.49237V27.1113" stroke="#EB8880" stroke-width="2" stroke-miterlimit="10"/>
<path id="Vector_10" d="M23.4503 8.49172C24.7129 8.49172 25.7364 7.46834 25.7364 6.20594C25.7364 4.94354 24.7129 3.92017 23.4503 3.92017C22.1876 3.92017 21.1641 4.94354 21.1641 6.20594C21.1641 7.46834 22.1876 8.49172 23.4503 8.49172Z" stroke="#EB8880" stroke-width="2" stroke-miterlimit="10"/>
</g>
</svg>
