<svg width="64" height="124" viewBox="0 0 64 124" fill="none" xmlns="http://www.w3.org/2000/svg">
<g id="_&#229;&#156;&#150;&#229;&#177;&#164;_1" clip-path="url(#clip0_110_415)">
<path id="Vector" d="M31.55 121.71C48.1462 121.71 61.6 108.256 61.6 91.6601C61.6 75.064 48.1462 61.6101 31.55 61.6101C14.9538 61.6101 1.5 75.064 1.5 91.6601C1.5 108.256 14.9538 121.71 31.55 121.71Z" stroke="#EB8880" stroke-width="3" stroke-miterlimit="10"/>
<path id="Vector_2" d="M31.7297 61.6C48.3258 61.6 61.7797 48.1462 61.7797 31.55C61.7797 14.9538 48.3258 1.5 31.7297 1.5C15.1335 1.5 1.67969 14.9538 1.67969 31.55C1.67969 48.1462 15.1335 61.6 31.7297 61.6Z" stroke="#EB8880" stroke-width="3" stroke-miterlimit="10"/>
<path id="Vector_3" d="M7.61035 49.4899C11.7804 45.1199 17.1404 41.8899 23.1604 40.2999C25.9004 39.5699 28.7704 39.1799 31.7304 39.1799C35.4104 39.1799 38.9504 39.7799 42.2704 40.8799C47.4904 42.6099 52.1403 45.5999 55.8503 49.4899" stroke="#EB8880" stroke-width="3" stroke-miterlimit="10"/>
<path id="Vector_4" d="M11.0703 9.73999V16.75H23.1603" stroke="#EB8880" stroke-width="3" stroke-miterlimit="10"/>
<path id="Vector_5" d="M23.1602 50.37V37.42V31.56V23.82V20.53V16.75V2.75" stroke="#EB8880" stroke-width="3" stroke-miterlimit="10"/>
<path id="Vector_6" d="M2.66016 39.1801C6.42016 36.6501 11.0702 31.8801 11.0702 23.8201H23.1602" stroke="#EB8880" stroke-width="3" stroke-miterlimit="10"/>
<path id="Vector_7" d="M23.1602 17.06C23.1602 17.06 35.4502 13.53 42.5202 3.51001" stroke="#EB8880" stroke-width="3" stroke-miterlimit="10"/>
<path id="Vector_8" d="M15.6104 81.81C15.6104 81.81 21.9704 79.75 24.9404 73.77" stroke="#EB8880" stroke-width="3" stroke-miterlimit="10"/>
<path id="Vector_9" d="M5.7998 76.1699C8.9998 80.3199 13.6198 81.8199 13.6198 81.8199" stroke="#EB8880" stroke-width="3" stroke-miterlimit="10"/>
<path id="Vector_10" d="M38.1904 7.75C38.1904 7.75 40.7404 15.23 48.1404 18.73" stroke="#EB8880" stroke-width="3" stroke-miterlimit="10"/>
<path id="Vector_11" d="M34.3496 67.6201C34.3496 67.6201 36.8896 75.4501 44.2696 79.1301" stroke="#EB8880" stroke-width="3" stroke-miterlimit="10"/>
<path id="Vector_12" d="M33.8604 80.8601C33.8604 80.8601 36.4003 88.6901 43.7803 92.3701" stroke="#EB8880" stroke-width="3" stroke-miterlimit="10"/>
<path id="Vector_13" d="M29.1396 14.5801C29.1396 14.5801 32.0996 22.2701 40.6796 25.8801" stroke="#EB8880" stroke-width="3" stroke-miterlimit="10"/>
<path id="Vector_14" d="M19.7002 87.1499C19.7002 87.1499 23.5702 110.45 34.8002 121.38" stroke="#EB8880" stroke-width="3" stroke-miterlimit="10"/>
<path id="Vector_15" d="M4.51953 104.82C8.11953 95.6699 9.52953 87.1499 9.52953 87.1499" stroke="#EB8880" stroke-width="3" stroke-miterlimit="10"/>
<path id="Vector_16" d="M53.3398 9.75C47.3798 26.36 31.2398 32.97 28.2798 34.05C27.9698 34.17 27.7998 34.22 27.7998 34.22" stroke="#EB8880" stroke-width="3" stroke-miterlimit="10"/>
<path id="Vector_17" d="M14.0303 34.3101H53.8603" stroke="#EB8880" stroke-width="3" stroke-miterlimit="10"/>
<path id="Vector_18" d="M42.2695 34.3101V50.3601" stroke="#EB8880" stroke-width="3" stroke-miterlimit="10"/>
<path id="Vector_19" d="M26.6504 53.97H38.1904" stroke="#EB8880" stroke-width="3" stroke-miterlimit="10"/>
<path id="Vector_20" d="M1.67969 87.1499H29.1397" stroke="#EB8880" stroke-width="3" stroke-miterlimit="10"/>
<path id="Vector_21" d="M28.2197 98.3899H60.8397" stroke="#EB8880" stroke-width="3" stroke-miterlimit="10"/>
<path id="Vector_22" d="M14.6201 66.8301V116.9" stroke="#EB8880" stroke-width="3" stroke-miterlimit="10"/>
<path id="Vector_23" d="M50.25 115.18V68.1399" stroke="#EB8880" stroke-width="3" stroke-miterlimit="10"/>
</g>
<defs>
<clipPath id="clip0_110_415">
<rect width="63.28" height="123.21" fill="white"/>
</clipPath>
</defs>
</svg>
